{"title":"Gang.Related.S01E03.AVI.HDTV.DivX.NLsub.{Th3Sp3cialist}","uid":10808614,"size":442294151,"categoryP":"video","categoryS":"hd___tv_shows","magnet":"?xt=urn:btih:dc4fb75e0fb64791dc5daa34ec4ebdda4fadd7f9&amp;dn=Gang.Related.S01E03.AVI.HDTV.DivX.NLsub.%7BTh3Sp3cialist%7D&amp;tr=udp%3A%2F%2Ftracker.openbittorrent.com%3A80&amp;tr=udp%3A%2F%2Fopen.demonii.com%3A1337&amp;tr=udp%3A%2F%2Ftracker.coppersurfer.tk%3A6969&amp;tr=udp%3A%2F%2Fexodus.desync.com%3A6969","seeders":3,"leechers":0,"uploader":"HOLLANDmovies","files":-1,"time":1408401645,"description":"General\nComplete name                  : Gang.Related.S01E03.AVI.HDTV.DivX.NLsub.{Th3Sp3cialist}.avi\nFormat                         : AVI\nFormat/Info                    : Audio Video Interleave\nFile size                      : 417 MiB\nDuration                       : 44mn 34s\nOverall bit rate               : 1 309 Kbps\n\nVideo\nID                             : 0\nOriginal source                : Gang Related S01E03 1080p HDTV NL Subs - BBT\nFormat                         : xvid\nCodec ID                       : xvid\nDuration                       : 44mn 34s\nBit rate                       : 1 169 Kbps\nWidth                          : 640 pixels\nHeight                         : 360 pixels\nDisplay aspect ratio           : 16:9\nFrame rate                     : 23.976 fps\nBits/(Pixel*Frame)             : 0.212\nStream size                    : 373 MiB (89%)\n\nAudio\nID                             : 1\nFormat                         : MPEG Audio\nFormat version                 : Version 1\nFormat profile                 : Layer 3\nMode                           : Joint stereo\nMode extension                 : MS Stereo\nCodec ID                       : 55\nCodec ID/Hint                  : MP3\nDuration                       : 44mn 34s\nBit rate mode                  : Constant\nBit rate                       : 128 Kbps\nChannel(s)                     : 2 channels\nSampling rate                  : 44.1 KHz\nCompression mode               : Lossy\nStream size                    : 40.8 MiB (10%)\nAlignment                      : Aligned on interleaves\nInterleave, duration           : 26 ms (0.63 video frame)\n &lt;a href=&quot;\nhttp://bayimg.com/haPeHAAfO&quot; rel=&quot;nofollow&quot; target=&quot;_NEW&quot;&gt;\nhttp://bayimg.com/haPeHAAfO&lt;/a&gt;\n[img=]http://image.bayimg.com/5687cbcedc9dde13cb28460acc855bdb998182d6.jpg[/img] &lt;a href=&quot;\nhttp://bayimg.com/HAPENAAFo&quot; rel=&quot;nofollow&quot; target=&quot;_NEW&quot;&gt;\nhttp://bayimg.com/HAPENAAFo&lt;/a&gt; &lt;a href=&quot;\nhttp://bayimg.com/IaPEAAAfo&quot; rel=&quot;nofollow&quot; target=&quot;_NEW&quot;&gt;\nhttp://bayimg.com/IaPEAAAfo&lt;/a&gt;\n\n","torrent":{"xt":"urn:btih:dc4fb75e0fb64791dc5daa34ec4ebdda4fadd7f9","amp;dn":"Gang.Related.S01E03.AVI.HDTV.DivX.NLsub.%7BTh3Sp3cialist%7D","amp;tr":["udp%3A%2F%2Ftracker.openbittorrent.com%3A80","udp%3A%2F%2Fopen.demonii.com%3A1337","udp%3A%2F%2Ftracker.coppersurfer.tk%3A6969","udp%3A%2F%2Fexodus.desync.com%3A6969"],"infoHash":"dc4fb75e0fb64791dc5daa34ec4ebdda4fadd7f9","infoHashBuffer":{"type":"Buffer","data":[220,79,183,94,15,182,71,145,220,93,170,52,236,78,189,218,79,173,215,249]},"announce":[],"urlList":[]}}